<?xml version="1.0" encoding="utf-8"?>
<!-- Generator: Adobe Illustrator 19.2.1, SVG Export Plug-In . SVG Version: 6.00 Build 0)  -->
<svg version="1.1" xmlns="http://www.w3.org/2000/svg" xmlns:xlink="http://www.w3.org/1999/xlink" x="0px" y="0px"
	 viewBox="0 0 512 512" style="enable-background:new 0 0 512 512;" xml:space="preserve">
<style type="text/css">
	.st0{fill:#FAFAFA;}
	.st1{fill:#FFDFBA;}
	.st2{fill:#FE4F60;}
	.st3{fill:#42434D;}
	.st4{fill:#FFEBD2;}
	.st5{fill:#FFF3E4;}
	.st6{fill:#FFD6A6;}
	.st7{fill:#FF6D7A;}
	.st8{fill:#E84857;}
	.st9{fill:#4D4E59;}
</style>
<g id="Layer_2">
	<rect class="st0" width="512" height="512"/>
</g>
<g id="Layer_1">
	<g id="Layer_1_1_">
		<path class="st1" d="M413.7,453.5V495c0,4.7-3.8,8.5-8.5,8.5H96.3c-4.7,0-8.5-3.8-8.5-8.5v-41.5c0-43.6,35.3-78.8,79-78.8
			c15.4,0,29-7.9,36.8-20c7.8-12.1,7-22.5,7-31l0.1-0.3c-37.9-15.7-64.7-53.1-64.7-96.8v-3.3c-15.1,0-26.4-12-26.4-26v-44
			c-0.3-15.3,0.3-69.3,39.3-106.9C204.2,2.6,276,6.2,328.1,29.5c1.7,0.8,1.6,3.2-0.1,3.9L314.4,39c-2.1,0.8-1.6,3.8,0.6,4l6.6,0.7
			c31.6,3.3,60.9,20.5,79.1,49.1c0.5,0.8,0.3,2-0.2,2.6c-11.3,11.8-17.5,27.6-17.5,44v57.6c0,14.4-11.6,26-26,26h-1.5v3.3
			c0,43.7-26.7,81.1-64.7,96.8l0.1,0.3c0,8.3-0.9,18.8,7,31c7.8,12.1,21.4,20,36.8,20C378.3,374.5,413.7,409.8,413.7,453.5
			L413.7,453.5z"/>
		<path class="st2" d="M413.7,453.5V495c0,4.7-3.8,8.5-8.5,8.5H96.3c-4.7,0-8.5-3.8-8.5-8.5v-41.5c0-43.6,35.3-78.8,79-78.8
			c15.4,0,29-7.9,36.8-20c27.2,23.3,67.2,23.3,94.5,0c7.8,12.1,21.4,20,36.8,20C378.3,374.5,413.7,409.8,413.7,453.5L413.7,453.5z"
			/>
		<path class="st3" d="M400.7,92.8c0.5,0.8,0.3,2-0.2,2.6c-11.3,11.8-17.5,27.6-17.5,44v57.6c0,13.1-9.9,26-27.5,26v-65.4
			c0-28-22.8-50.8-50.8-50.8H196.9c-28,0-50.8,22.8-50.8,50.8v65.4c-15.1,0-26.4-12-26.4-26v-44c-0.3-15.3,0.3-69.3,39.3-106.9
			C204.3,2.5,276.2,6.1,328.2,29.4c1.7,0.8,1.6,3.2-0.1,3.9l-13.6,5.6c-2.1,0.8-1.6,3.8,0.6,4l6.6,0.7
			C353.3,47.1,382.6,64.2,400.7,92.8z"/>
		<path class="st4" d="M355.5,226.4c0,57.9-46.9,104.7-104.7,104.7c-54.5,0-104.7-42.4-104.7-108v-65.4c0-28,22.8-50.8,50.8-50.8
			h107.9c28,0,50.8,22.8,50.8,50.8v68.7H355.5z"/>
		<path class="st5" d="M227.1,294c17.2,10.8,3.7,37.2-15.2,29.7c-38.7-15.5-65.9-53.3-65.9-97.2v-68.6c0-10.7,3.3-20.6,9-28.7
			c6.9-10,22.9-5.6,22.9,7.6v68.6C177.8,243.9,198,275.9,227.1,294L227.1,294z"/>
		<path class="st6" d="M292.1,341c-26.1,10.9-54.7,11.7-82.8,0c1.4-6,1.1-9.8,1.1-17.4l0.1-0.3c25.5,10.6,54.6,10.6,80.1,0l0.1,0.3
			C291,331.1,290.8,335,292.1,341L292.1,341z"/>
		<path class="st7" d="M209.4,400.1c-3.9,1.3-8.2,2-12.6,2c-43.7,0.3-79.3,34.9-79.3,78.6v7.9c0,8.2-6.7,14.8-14.8,14.8h-6.3
			c-4.7,0-8.5-3.8-8.5-8.5v-41.5c0-43.6,35.3-78.8,79-78.8c15.4,0,29-7.9,36.8-20c3.1,2.6,6.6,5.1,10.1,7.2
			C229.2,371.1,226.7,394.7,209.4,400.1L209.4,400.1z"/>
		<path class="st8" d="M292.1,400.1c3.9,1.3,8.2,2,12.6,2c43.7,0.3,79.3,34.9,79.3,78.6v7.9c0,8.2,6.7,14.8,14.8,14.8h6.3
			c4.7,0,8.5-3.8,8.5-8.5v-41.5c0-43.6-35.3-78.8-79-78.8c-15.4,0-29-7.9-36.8-20c-3.1,2.6-6.6,5.1-10.1,7.2
			C272.4,371.1,274.8,394.7,292.1,400.1L292.1,400.1z"/>
		<path class="st9" d="M328.1,33.4c-12.4,5.2-14.3,6.2-18.5,5.6C240.1,28.2,179.2,57,158.5,124.6l0,0c-7.7,9-12.4,20.6-12.4,33.2
			v39.7c0,17.1-26.4,18.3-26.4-0.3v-44c-0.3-15.3,0.3-69.3,39.3-106.9C204.3,2.5,276.2,6.1,328.2,29.4
			C329.8,30.3,329.8,32.7,328.1,33.4L328.1,33.4z"/>
		<path d="M422.1,453.5v50c0,4.7-3.8,8.5-8.5,8.5c-4.7,0-8.5-3.8-8.5-8.5v-50c0-39-31.5-70.5-70.5-70.5c-18.4,0-35.2-9.4-44.7-25.1
			c-2.4-4-1.1-9.2,2.9-11.6c4-2.4,9.2-1.1,11.6,2.9c6.4,10.7,17.8,17,30.2,17C383,366,422.1,405.1,422.1,453.5L422.1,453.5z
			 M274.4,368.6c1,4.6-2,9.1-6.4,10.1c-22.3,4.8-44.9,0-63-12.3c-17.8,19.1-41.5,16.7-38.3,16.7c-39,0-70.5,31.5-70.5,70.5v50
			c0,4.7-3.8,8.5-8.5,8.5s-8.5-3.8-8.5-8.5v-50c0-48.3,39.1-87.4,87.4-87.4c19.5,0,35.4-15.7,35.4-35.3v-2.2
			c-36.9-17.7-62.9-54.8-64.5-98c-15.2-3.7-26.5-17.2-26.5-33.4v-43.9c-0.5-21.5,2.8-75.3,42-113.1C201.3-6.5,279-3.5,336.2,24
			c5.5,2.6,6.4,10.2,1.8,14.1c29,7,53.9,24.8,69.9,50.3c0.8,1.3,2.3,3.3,2,6.7c-0.2,2.1-0.8,3.8-2.4,5.4c-10.3,10.5-16,24.4-16,39.1
			v57.5c0,4.7-3.8,8.5-8.5,8.5s-8.5-3.8-8.5-8.5v-57.7c0-17,5.7-33.1,16.4-46c-16.2-23.2-41.5-38.2-70.2-41.1l-14.7-1.7
			c-8.7-0.9-10.5-12.9-2.3-16.2l6.8-2.8C222.3,0.9,128,35,128,153.2v43.9c0,6.7,3.9,12.5,9.5,15.5v-54.8c0-32.6,26.5-59.3,59.3-59.3
			h107.9c32.6,0,59.3,26.5,59.3,59.2V227c0,73.6-71.9,129.5-145.2,107.9c-0.5,6.1-2,11.8-4.5,17.2c14.3,9.8,32.2,13.7,50,9.9
			C268.9,361.1,273.4,364.1,274.4,368.6L274.4,368.6z M250.8,322.7c53.1,0,96.3-43.2,96.3-96.3v-68.6c0-23.3-19-42.3-42.3-42.3
			H196.9c-23.3,0-42.3,19-42.3,42.3v68.6C154.4,279.5,197.7,322.7,250.8,322.7L250.8,322.7z M336.5,468.6h-25.4
			c-4.7,0-8.5,3.8-8.5,8.5s3.8,8.5,8.5,8.5h25.4c4.7,0,8.5-3.8,8.5-8.5C344.9,472.3,341.1,468.6,336.5,468.6z"/>
	</g>
</g>
</svg>
